<?xml version="1.0" encoding="UTF-8"?>
<!DOCTYPE svg PUBLIC "-//W3C//DTD SVG 1.1//EN" "http://www.w3.org/Graphics/SVG/1.1/DTD/svg11.dtd">
<!-- Creator: CorelDRAW X8 -->
<svg xmlns="http://www.w3.org/2000/svg" xml:space="preserve" width="114.819mm" height="72.8864mm" version="1.1" style="shape-rendering:geometricPrecision; text-rendering:geometricPrecision; image-rendering:optimizeQuality; fill-rule:evenodd; clip-rule:evenodd"
viewBox="0 0 583 370"
 xmlns:xlink="http://www.w3.org/1999/xlink">
 <defs>
  <style type="text/css">
   <![CDATA[
    .fil0 {fill:#00A1E1}
    .fil1 {fill:#4C4D4F}
   ]]>
  </style>
 </defs>
 <g id="Capa_x0020_1">
  <metadata id="CorelCorpID_0Corel-Layer"/>
  <g id="_3041429365264">
   <path class="fil0" d="M286 1l1 168 1 201 -3 0 0 -201 0 -168 1 0zm1 168l-2 0 -187 0 0 201 187 0 0 -201 0 -168 -142 84 -143 84 98 0 187 0 2 0z"/>
   <path class="fil1" d="M299 0l1 168 0 201 185 0 0 -201 -185 0 -1 -168zm1 168l185 0 98 0 -143 -85 -141 -83 1 168z"/>
   <path class="fil1" d="M403 166l0 93c-1,-1 -1,-2 -2,-3 -1,-1 -1,-1 -2,-2l-33 -41c-7,-7 -21,-26 -27,-33l-24 -23c-6,-5 -16,-12 -24,-12l-34 0c0,16 2,26 -12,26 -3,0 -7,-3 -12,-6l-73 -42c-4,-3 -3,-5 -3,-9 0,-7 13,-12 19,-16 4,-2 7,-4 12,-6l45 -27c6,-3 15,-10 21,-2 1,1 3,5 3,7l0 16 39 0c7,0 15,3 20,5 15,4 27,13 39,23l33 33c4,6 10,13 15,19z"/>
   <path class="fil0" d="M194 248l0 -92c0,1 1,1 2,2 1,1 1,1 1,2l34 41c6,8 20,27 27,33l24 24c6,5 15,12 24,12l34 0c0,-16 -2,-27 12,-27 3,0 7,4 11,6l74 43c3,2 3,5 3,8 0,7 -13,12 -19,16 -4,3 -8,4 -12,7l-46 26c-5,4 -15,10 -20,3 -2,-2 -3,-5 -3,-8l0 -16 -40 0c-6,0 -14,-3 -20,-4 -14,-5 -26,-14 -38,-23l-33 -34c-5,-6 -10,-12 -15,-19z"/>
  </g>
 </g>
</svg>
